<svg width="20" height="20" viewBox="0 0 20 20" fill="none" xmlns="http://www.w3.org/2000/svg">
<path d="M10 0.699951C4.48602 0.699951 0 4.99371 0 10.2714C0 15.5491 4.48602 19.8428 10 19.8428C15.514 19.8428 20 15.5491 20 10.2714C20 4.99371 15.514 0.699951 10 0.699951ZM10.6572 18.5612V17.2814C10.6572 16.934 10.3629 16.6524 10 16.6524C9.63707 16.6524 9.34284 16.934 9.34284 17.2814V18.5612C5.07632 18.2542 1.65972 14.9841 1.33902 10.9004H2.67612C3.03904 10.9004 3.33328 10.6188 3.33328 10.2714C3.33328 9.92402 3.03904 9.6424 2.67612 9.6424H1.33902C1.65972 5.55872 5.07632 2.28854 9.34284 1.98159V3.26138C9.34284 3.60875 9.63707 3.89038 10 3.89038C10.3629 3.89038 10.6572 3.60875 10.6572 3.26138V1.98159C14.9237 2.28854 18.3403 5.55872 18.661 9.6424H17.3239C16.961 9.6424 16.6667 9.92402 16.6667 10.2714C16.6667 10.6188 16.961 10.9004 17.3239 10.9004H18.661C18.3402 14.9841 14.9237 18.2542 10.6572 18.5612Z" fill="#000002"/>
<path d="M14.2459 9.64237H10.5741L7.61377 5.23471C7.41741 4.94244 7.01085 4.85799 6.70558 5.04576C6.40031 5.23362 6.3119 5.62276 6.50817 5.91503L9.66252 10.6115C9.66349 10.6129 9.66471 10.6141 9.66568 10.6156C9.6797 10.6361 9.69477 10.6558 9.71106 10.6745C9.71518 10.6793 9.71974 10.6835 9.72412 10.6882C9.73639 10.7013 9.749 10.7142 9.76232 10.7263C9.76933 10.7327 9.77643 10.7388 9.78361 10.7449C9.79588 10.7551 9.80859 10.7648 9.82155 10.7741C9.82848 10.7791 9.83513 10.7843 9.84214 10.7889C9.86203 10.8021 9.88254 10.8144 9.90392 10.8254C9.90672 10.8268 9.9097 10.828 9.91259 10.8294C9.93196 10.839 9.95176 10.8477 9.97217 10.8555C9.97839 10.8578 9.98479 10.8599 9.9911 10.8621C10.0085 10.8682 10.0262 10.8735 10.0444 10.8782C10.0514 10.88 10.0583 10.8817 10.0653 10.8833C10.0835 10.8874 10.1019 10.8905 10.1204 10.8931C10.1272 10.8941 10.1337 10.8953 10.1405 10.8961C10.1636 10.8986 10.187 10.9 10.2108 10.9002C10.2125 10.9002 10.2142 10.9004 10.2158 10.9004C10.2162 10.9004 10.2166 10.9004 10.2171 10.9004H14.2458C14.6087 10.9004 14.903 10.6187 14.903 10.2714C14.903 9.92399 14.6088 9.64237 14.2459 9.64237Z" fill="#000002"/>
</svg>
