<svg width="56" height="45" viewBox="0 0 56 45" fill="none" xmlns="http://www.w3.org/2000/svg">
<rect x="0.5" y="0.5" width="53.0001" height="44" rx="9.5" fill="url(#paint0_linear_510_227)" stroke="black"/>
<path d="M25.3418 25.3613C25.4199 25.3223 25.4915 25.3027 25.5566 25.3027C25.6283 25.3027 25.6836 25.3288 25.7227 25.3809C25.7617 25.4264 25.7812 25.485 25.7812 25.5566C25.7812 25.6478 25.7454 25.752 25.6738 25.8691C25.6022 25.9798 25.4915 26.0807 25.3418 26.1719C24.9642 26.4323 24.5833 26.6797 24.1992 26.9141C23.8151 27.1419 23.4277 27.3568 23.0371 27.5586C22.7051 27.7344 22.3503 27.9069 21.9727 28.0762C21.5951 28.2389 21.2077 28.3854 20.8105 28.5156C20.4134 28.6393 20.013 28.7402 19.6094 28.8184C19.2122 28.8965 18.8281 28.9355 18.457 28.9355C18.151 28.9355 17.8613 28.9062 17.5879 28.8477C17.2298 29.4661 16.8262 30.0358 16.377 30.5566C15.9277 31.0775 15.4557 31.5462 14.9609 31.9629C14.4661 32.3796 13.9551 32.7441 13.4277 33.0566C12.9069 33.3757 12.3893 33.6393 11.875 33.8477C11.3607 34.0625 10.8626 34.222 10.3809 34.3262C9.89909 34.4368 9.44987 34.4922 9.0332 34.4922C8.81836 34.4922 8.63932 34.4759 8.49609 34.4434C8.35938 34.4173 8.2487 34.3783 8.16406 34.3262C8.07943 34.2806 8.01758 34.2285 7.97852 34.1699C7.94596 34.1113 7.92969 34.0527 7.92969 33.9941C7.92969 33.89 7.96549 33.7988 8.03711 33.7207C8.10872 33.6491 8.18359 33.6133 8.26172 33.6133C8.65234 33.6133 9.06576 33.5417 9.50195 33.3984C9.94466 33.2552 10.3906 33.0534 10.8398 32.793C11.2891 32.5326 11.735 32.2201 12.1777 31.8555C12.6204 31.4974 13.0404 31.097 13.4375 30.6543C13.8411 30.2181 14.2122 29.7493 14.5508 29.248C14.8893 28.7467 15.1823 28.2292 15.4297 27.6953C15.293 27.5521 15.2246 27.4121 15.2246 27.2754C15.2246 27.1647 15.2734 27.0508 15.3711 26.9336C15.4688 26.8099 15.6315 26.6829 15.8594 26.5527L15.9082 26.5234C16.0059 26.2826 16.1328 25.9798 16.2891 25.6152C16.4518 25.2441 16.6309 24.834 16.8262 24.3848C17.0215 23.9355 17.2331 23.4603 17.4609 22.959C17.6888 22.4512 17.9199 21.9434 18.1543 21.4355C17.8158 21.4551 17.474 21.4779 17.1289 21.5039C16.7839 21.5234 16.4323 21.5462 16.0742 21.5723C15.918 22.2298 15.6836 22.7995 15.3711 23.2812C15.0651 23.7565 14.7103 24.1504 14.3066 24.4629C13.9095 24.7689 13.4798 24.9967 13.0176 25.1465C12.5553 25.2962 12.0898 25.3711 11.6211 25.3711C11.0938 25.3711 10.5827 25.2832 10.0879 25.1074C9.5931 24.9251 9.15365 24.6615 8.76953 24.3164C8.38542 23.9714 8.07617 23.5482 7.8418 23.0469C7.61393 22.5456 7.5 21.9759 7.5 21.3379C7.5 20.1139 7.66602 19.0397 7.99805 18.1152C8.33659 17.1842 8.80534 16.3835 9.4043 15.7129C10.0033 15.0423 10.7161 14.4857 11.543 14.043C12.3698 13.6003 13.2747 13.2487 14.2578 12.9883C15.2409 12.7214 16.2858 12.5358 17.3926 12.4316C18.4993 12.321 19.6289 12.2656 20.7812 12.2656C21.3346 12.2656 21.8783 12.2754 22.4121 12.2949C22.946 12.3145 23.4896 12.3405 24.043 12.373C24.1667 12.334 24.2904 12.3145 24.4141 12.3145C24.5508 12.3145 24.6712 12.3275 24.7754 12.3535C24.8861 12.3796 24.9772 12.4121 25.0488 12.4512C26.1882 12.5423 27.3047 12.653 28.3984 12.7832C29.4922 12.9069 30.5241 13.0273 31.4941 13.1445C32.4642 13.2552 33.3529 13.3529 34.1602 13.4375C34.974 13.5156 35.6706 13.5547 36.25 13.5547C36.9727 13.5547 37.653 13.5221 38.291 13.457C38.9355 13.3919 39.5378 13.3073 40.0977 13.2031C40.6641 13.0924 41.1849 12.9688 41.6602 12.832C42.1354 12.6888 42.5684 12.5423 42.959 12.3926C43.4147 12.2233 43.8379 12.0443 44.2285 11.8555C44.6191 11.6667 44.9837 11.4583 45.3223 11.2305L46.1816 11.875C45.6608 12.4479 45.0879 12.9264 44.4629 13.3105C43.8444 13.6947 43.1836 14.0039 42.4805 14.2383C41.7773 14.4727 41.0384 14.6387 40.2637 14.7363C39.4889 14.834 38.6914 14.8828 37.8711 14.8828C36.8294 14.8828 35.7617 14.821 34.668 14.6973C33.5742 14.5671 32.4707 14.4141 31.3574 14.2383C30.2507 14.056 29.1504 13.8639 28.0566 13.6621C26.9629 13.4603 25.8952 13.2845 24.8535 13.1348C24.6387 13.3431 24.3783 13.6035 24.0723 13.916C23.7663 14.2285 23.457 14.5638 23.1445 14.9219C22.8385 15.2734 22.5521 15.6348 22.2852 16.0059C22.0247 16.377 21.8262 16.7253 21.6895 17.0508C21.4681 17.5781 21.2533 18.1478 21.0449 18.7598C20.8431 19.3652 20.6445 20.0033 20.4492 20.6738C21.4062 20.6738 22.3763 20.6706 23.3594 20.6641C24.3424 20.6576 25.2962 20.651 26.2207 20.6445C27.1517 20.638 28.0306 20.6315 28.8574 20.625C29.6908 20.612 30.4329 20.6022 31.084 20.5957C31.7415 20.5892 32.2884 20.5827 32.7246 20.5762C33.1608 20.5697 33.4473 20.5664 33.584 20.5664C33.8574 20.5664 34.0755 20.5892 34.2383 20.6348C34.401 20.6803 34.5182 20.7259 34.5898 20.7715C34.6289 20.9408 34.6484 21.0645 34.6484 21.1426C34.6484 21.2337 34.6289 21.2956 34.5898 21.3281C34.5508 21.3542 34.4954 21.3672 34.4238 21.3672C34.3392 21.3672 34.2318 21.3574 34.1016 21.3379C33.9779 21.3184 33.8314 21.3086 33.6621 21.3086C32.8027 21.3086 31.9824 21.3086 31.2012 21.3086C30.4264 21.3021 29.681 21.2956 28.9648 21.2891C28.2552 21.2826 27.5716 21.2793 26.9141 21.2793C26.2565 21.2728 25.6152 21.2695 24.9902 21.2695C24.1634 21.2695 23.3626 21.276 22.5879 21.2891C21.8197 21.2956 21.0417 21.3118 20.2539 21.3379C20.0846 21.9043 19.9154 22.474 19.7461 23.0469C19.5768 23.6133 19.4076 24.1634 19.2383 24.6973C19.0755 25.2246 18.9095 25.7292 18.7402 26.2109C18.5775 26.6927 18.4115 27.1322 18.2422 27.5293C18.4115 27.666 18.6003 27.7637 18.8086 27.8223C19.0169 27.8809 19.2415 27.9102 19.4824 27.9102C19.7689 27.9102 20.0716 27.8743 20.3906 27.8027C20.7161 27.7246 21.0417 27.627 21.3672 27.5098C21.6992 27.3926 22.028 27.2591 22.3535 27.1094C22.679 26.9531 22.9883 26.7969 23.2812 26.6406C23.6328 26.4518 23.9746 26.2533 24.3066 26.0449C24.6452 25.8301 24.9902 25.6022 25.3418 25.3613ZM20.4492 16.4355C20.4818 16.377 20.5404 16.276 20.625 16.1328C20.7096 15.9831 20.8138 15.8073 20.9375 15.6055C21.0677 15.4036 21.2142 15.1855 21.377 14.9512C21.5397 14.7103 21.7155 14.4694 21.9043 14.2285C22.0931 13.9811 22.2884 13.7467 22.4902 13.5254C22.6986 13.2975 22.9102 13.0957 23.125 12.9199C22.6953 12.8743 22.2721 12.8385 21.8555 12.8125C21.4453 12.7865 21.0417 12.7734 20.6445 12.7734C19.5964 12.7734 18.5775 12.8255 17.5879 12.9297C16.5983 13.0339 15.6673 13.2129 14.7949 13.4668C13.9225 13.7142 13.1185 14.0462 12.3828 14.4629C11.6536 14.8796 11.0254 15.4036 10.498 16.0352C9.9707 16.6602 9.56055 17.4056 9.26758 18.2715C8.97461 19.1309 8.82812 20.127 8.82812 21.2598C8.82812 21.8848 8.89323 22.4186 9.02344 22.8613C9.16016 23.304 9.34245 23.6654 9.57031 23.9453C9.80469 24.2188 10.0749 24.4206 10.3809 24.5508C10.6868 24.6745 11.0156 24.7363 11.3672 24.7363C11.7839 24.7363 12.2135 24.6549 12.6562 24.4922C13.1055 24.3294 13.5352 24.1081 13.9453 23.8281C14.3555 23.5417 14.7298 23.2096 15.0684 22.832C15.4134 22.4479 15.6901 22.0345 15.8984 21.5918L15.4785 21.6211C15.4395 21.6276 15.4004 21.6309 15.3613 21.6309C15.3288 21.6309 15.2962 21.6309 15.2637 21.6309C14.9121 21.6309 14.6484 21.569 14.4727 21.4453C14.3034 21.3151 14.2188 21.1686 14.2188 21.0059C14.2188 20.7975 14.349 20.6217 14.6094 20.4785C14.8503 20.3483 15.2376 20.2832 15.7715 20.2832C15.7975 20.2832 15.8236 20.2832 15.8496 20.2832C16.0645 20.2832 16.2435 20.293 16.3867 20.3125C16.5365 20.332 16.6667 20.3581 16.7773 20.3906C16.8945 20.4167 17.002 20.446 17.0996 20.4785C17.1973 20.5111 17.3079 20.5436 17.4316 20.5762C17.5553 20.6022 17.7018 20.625 17.8711 20.6445C18.0404 20.6641 18.252 20.6738 18.5059 20.6738C18.7598 20.1074 19.0039 19.5703 19.2383 19.0625C19.4727 18.5482 19.6777 18.099 19.8535 17.7148C20.0358 17.3242 20.1562 17.0703 20.2148 16.9531L20.4492 16.4355ZM47.0801 25.3613C47.1647 25.3288 47.2331 25.3125 47.2852 25.3125C47.3763 25.3125 47.4577 25.3353 47.5293 25.3809C47.6074 25.4264 47.6465 25.4915 47.6465 25.5762C47.6465 25.6673 47.5488 25.7943 47.3535 25.957C47.1582 26.1133 46.9206 26.2826 46.6406 26.4648C46.3607 26.6471 46.071 26.8294 45.7715 27.0117C45.472 27.1875 45.2148 27.3405 45 27.4707C44.7135 27.6595 44.3913 27.8874 44.0332 28.1543C43.6751 28.4147 43.304 28.6686 42.9199 28.916C42.5423 29.1634 42.168 29.3717 41.7969 29.541C41.4323 29.7168 41.1003 29.8047 40.8008 29.8047C40.5339 29.8047 40.306 29.707 40.1172 29.5117C39.9349 29.3229 39.8438 29.0169 39.8438 28.5938C39.8438 28.3398 39.8828 28.0436 39.9609 27.7051C40.0391 27.36 40.1693 26.9629 40.3516 26.5137C40.5664 25.9798 40.752 25.5111 40.9082 25.1074C41.071 24.7038 41.2044 24.3587 41.3086 24.0723C41.4128 23.7858 41.4909 23.5514 41.543 23.3691C41.5951 23.1803 41.6211 23.0339 41.6211 22.9297C41.6211 22.7083 41.5397 22.5977 41.377 22.5977C41.2142 22.5977 40.9863 22.7051 40.6934 22.9199C40.4004 23.1283 40.0716 23.4049 39.707 23.75C39.349 24.0951 38.9714 24.4922 38.5742 24.9414C38.1836 25.3841 37.8092 25.8431 37.4512 26.3184C37.0931 26.7936 36.7708 27.2624 36.4844 27.7246C36.1979 28.1868 35.9798 28.6068 35.8301 28.9844C35.804 29.0495 35.7552 29.1146 35.6836 29.1797C35.612 29.2383 35.5273 29.2936 35.4297 29.3457C35.3385 29.3913 35.2376 29.4271 35.127 29.4531C35.0163 29.4857 34.9089 29.502 34.8047 29.502C34.6289 29.502 34.4759 29.4531 34.3457 29.3555C34.2155 29.2513 34.1504 29.0755 34.1504 28.8281C34.1504 28.6198 34.1895 28.3822 34.2676 28.1152C34.3522 27.8418 34.4336 27.5846 34.5117 27.3438C34.6224 26.9531 34.7396 26.5592 34.8633 26.1621C34.9935 25.7585 35.1139 25.3906 35.2246 25.0586C35.3548 24.6745 35.485 24.3001 35.6152 23.9355C35.6738 23.8379 35.7357 23.7337 35.8008 23.623C35.8724 23.5059 35.9342 23.3887 35.9863 23.2715C36.0384 23.1543 36.0807 23.0404 36.1133 22.9297C36.1523 22.8125 36.1719 22.7083 36.1719 22.6172C36.1719 22.4544 36.097 22.373 35.9473 22.373C35.6413 22.373 35.2897 22.4837 34.8926 22.7051C34.502 22.9199 34.0951 23.2031 33.6719 23.5547C33.2552 23.8997 32.8385 24.2936 32.4219 24.7363C32.0052 25.1725 31.6211 25.6152 31.2695 26.0645C30.918 26.5072 30.6152 26.9336 30.3613 27.3438C30.1074 27.7474 29.9316 28.0924 29.834 28.3789C29.7754 28.5547 29.7201 28.7077 29.668 28.8379C29.6224 28.9681 29.5703 29.0755 29.5117 29.1602C29.4531 29.2448 29.3815 29.3099 29.2969 29.3555C29.2122 29.3945 29.1016 29.4141 28.9648 29.4141C28.6914 29.4141 28.5059 29.3392 28.4082 29.1895C28.3171 29.0332 28.2715 28.8346 28.2715 28.5938C28.2715 28.4831 28.304 28.3138 28.3691 28.0859C28.4342 27.8516 28.5189 27.5846 28.623 27.2852C28.7337 26.9857 28.8542 26.6634 28.9844 26.3184C29.1146 25.9668 29.2448 25.6185 29.375 25.2734C29.5117 24.9219 29.6419 24.5833 29.7656 24.2578C29.8893 23.9323 29.9935 23.6426 30.0781 23.3887L25.3516 26.1719C25.2669 26.2174 25.1855 26.2402 25.1074 26.2402C25.0293 26.2402 24.9642 26.2174 24.9121 26.1719C24.8535 26.1263 24.8242 26.0645 24.8242 25.9863C24.8242 25.9017 24.8665 25.804 24.9512 25.6934C25.0293 25.5827 25.1628 25.472 25.3516 25.3613L28.8379 23.3105C28.9225 23.2454 29.0202 23.1803 29.1309 23.1152C29.248 23.0501 29.3685 22.9915 29.4922 22.9395C29.6224 22.8874 29.7526 22.8451 29.8828 22.8125C30.013 22.7799 30.1432 22.7637 30.2734 22.7637C30.4167 22.7637 30.5436 22.7995 30.6543 22.8711C30.7715 22.9362 30.8691 23.0208 30.9473 23.125C31.0254 23.2227 31.084 23.3333 31.123 23.457C31.1686 23.5807 31.1914 23.6979 31.1914 23.8086C31.1914 23.9258 31.1816 24.043 31.1621 24.1602C31.1491 24.2708 31.1165 24.4108 31.0645 24.5801C31.0189 24.7428 30.9538 24.9447 30.8691 25.1855C30.7845 25.4264 30.6738 25.7357 30.5371 26.1133C30.765 25.8073 31.0026 25.4915 31.25 25.166C31.5039 24.834 31.7708 24.5117 32.0508 24.1992C32.3307 23.8802 32.627 23.5775 32.9395 23.291C33.2585 23.0046 33.5938 22.7539 33.9453 22.5391C34.2969 22.3242 34.668 22.1549 35.0586 22.0312C35.4557 21.901 35.8724 21.8359 36.3086 21.8359C36.4388 21.8359 36.5658 21.8685 36.6895 21.9336C36.8197 21.9922 36.9336 22.0866 37.0312 22.2168C37.1354 22.347 37.2168 22.513 37.2754 22.7148C37.3405 22.9167 37.373 23.1543 37.373 23.4277C37.373 23.7467 37.3242 24.1146 37.2266 24.5312C37.1354 24.9414 36.9759 25.4102 36.748 25.9375C37.2103 25.2604 37.6758 24.694 38.1445 24.2383C38.6198 23.776 39.0788 23.3952 39.5215 23.0957C39.9707 22.7962 40.3971 22.5684 40.8008 22.4121C41.2044 22.2493 41.569 22.1289 41.8945 22.0508C42.0768 22.0508 42.2689 22.0768 42.4707 22.1289C42.6725 22.181 42.8548 22.2591 43.0176 22.3633C43.1803 22.4609 43.3138 22.5879 43.418 22.7441C43.5286 22.9004 43.584 23.0827 43.584 23.291C43.584 23.3496 43.5807 23.4082 43.5742 23.4668C43.5677 23.5254 43.5547 23.5872 43.5352 23.6523C43.457 23.9258 43.3496 24.222 43.2129 24.541C43.0762 24.8535 42.9297 25.1725 42.7734 25.498C42.6172 25.8236 42.4544 26.1458 42.2852 26.4648C42.1224 26.7773 41.9759 27.0736 41.8457 27.3535C41.7155 27.627 41.6081 27.8743 41.5234 28.0957C41.4388 28.3105 41.3965 28.4798 41.3965 28.6035C41.3965 28.7598 41.4551 28.8379 41.5723 28.8379C41.6699 28.8379 41.8197 28.776 42.0215 28.6523C42.2298 28.5286 42.4674 28.3757 42.7344 28.1934C43.0013 28.0046 43.291 27.7995 43.6035 27.5781C43.916 27.3568 44.2285 27.1484 44.541 26.9531L47.0801 25.3613Z" fill="black"/>
<defs>
<linearGradient id="paint0_linear_510_227" x1="0" y1="0" x2="54" y2="45" gradientUnits="userSpaceOnUse">
<stop stop-color="#FBC338"/>
<stop offset="0.3125" stop-color="#FDEF80"/>
<stop offset="0.666667" stop-color="#FCF490"/>
<stop offset="1" stop-color="#E4B339"/>
</linearGradient>
</defs>
</svg>
