<svg width="32" height="32" viewBox="0 0 32 32" fill="none" xmlns="http://www.w3.org/2000/svg">
<path d="M16 4.35752C13.5295 4.3575 11.1225 5.14029 9.12453 6.5935C7.1266 8.0467 5.64051 10.0956 4.8796 12.446C4.11869 14.7965 4.1221 17.3276 4.88933 19.6759C5.65656 22.0243 7.14817 24.0692 9.15 25.517L9.16075 25.5245L9.16275 25.526C11.1536 26.9607 13.5453 27.7326 15.9992 27.7326C18.4532 27.7326 20.8449 26.9607 22.8357 25.526L22.8472 25.518C24.8493 24.0705 26.3412 22.0258 27.1088 19.6775C27.8764 17.3292 27.8801 14.7981 27.1195 12.4475C26.3589 10.0969 24.873 8.04782 22.8753 6.59435C20.8775 5.14088 18.4706 4.35779 16 4.35752ZM9.845 24.9338V24.1775C9.84454 23.4297 9.99145 22.6892 10.2773 21.9982C10.5632 21.3072 10.9825 20.6793 11.5111 20.1504C12.0398 19.6215 12.6675 19.202 13.3583 18.9158C14.0492 18.6296 14.7897 18.4824 15.5375 18.4825H15.9712H16C16 18.4825 16.019 18.4825 16.0287 18.4825H16.4625C17.2103 18.4824 17.9508 18.6296 18.6417 18.9158C19.3325 19.202 19.9602 19.6215 20.4889 20.1504C21.0175 20.6793 21.4368 21.3072 21.7227 21.9982C22.0085 22.6892 22.1555 23.4297 22.155 24.1775V24.9338C20.3469 26.1864 18.1996 26.8575 16 26.8575C13.8004 26.8575 11.6531 26.1864 9.845 24.9338ZM16.0287 17.6088H15.9712C14.9459 17.6045 13.9639 17.1946 13.24 16.4685C12.516 15.7423 12.1089 14.7591 12.1077 13.7338C12.1077 13.6338 12.112 13.5323 12.1205 13.4303C12.201 12.4565 12.6449 11.5486 13.3639 10.8869C14.0828 10.2252 15.0244 9.85804 16.0015 9.85842C16.9786 9.85879 17.9199 10.2266 18.6384 10.8889C19.3568 11.5512 19.8 12.4594 19.8797 13.4333C19.888 13.5333 19.8922 13.6333 19.8922 13.7333C19.8911 14.7586 19.484 15.7418 18.76 16.468C18.0361 17.1941 17.0541 17.604 16.0287 17.6083V17.6088ZM23.03 24.2553V24.1775C23.0308 22.7603 22.5729 21.3809 21.7249 20.2454C20.8768 19.1099 19.6841 18.2793 18.325 17.8778C19.0647 17.4675 19.6812 16.8667 20.1105 16.1379C20.5398 15.4091 20.7663 14.5787 20.7665 13.7328C20.7665 13.6078 20.7612 13.4828 20.751 13.3618C20.6538 12.1686 20.1112 11.0557 19.2311 10.2442C18.3511 9.43262 17.1979 8.98189 16.0008 8.98151C14.8036 8.98113 13.6502 9.43114 12.7696 10.2421C11.889 11.0531 11.3457 12.1657 11.2477 13.3588C11.2372 13.4815 11.232 13.6073 11.232 13.7338C11.2324 14.5797 11.4591 15.41 11.8887 16.1387C12.3183 16.8674 12.9351 17.4679 13.675 17.8778C12.3158 18.2793 11.1231 19.1099 10.2751 20.2454C9.42702 21.3809 8.96919 22.7603 8.97 24.1775V24.2553C7.29086 22.8184 6.09236 20.9015 5.53588 18.7627C4.9794 16.6239 5.09168 14.3659 5.85759 12.2929C6.6235 10.2198 8.00626 8.43125 9.81966 7.16803C11.6331 5.9048 13.79 5.22759 16 5.22759C18.21 5.22759 20.3669 5.9048 22.1803 7.16803C23.9937 8.43125 25.3765 10.2198 26.1424 12.2929C26.9083 14.3659 27.0206 16.6239 26.4641 18.7627C25.9076 20.9015 24.7091 22.8184 23.03 24.2553Z" fill="black"/>
</svg>
