<svg width="30" height="25" viewBox="0 0 30 25" fill="none" xmlns="http://www.w3.org/2000/svg">
<path d="M8.86812 4.51925C8.46001 4.27795 8.08708 3.90367 7.59337 4.10289C7.32401 4.21158 7.17932 4.44246 7.22401 4.73886C7.24884 4.90353 7.34707 4.97221 7.50103 4.97221C7.69359 4.97221 7.66028 4.67614 7.6677 4.53297C7.67284 4.43376 7.62666 4.30359 7.50779 4.32251C7.19529 4.37222 6.89661 4.69278 6.83889 5.00195C6.72498 5.61202 7.18061 6.05412 7.76004 6.01996C8.05054 6.00284 8.13838 5.92149 8.15868 5.64936C8.17863 5.38188 8.21327 4.95831 8.00327 4.74801C7.8325 4.57699 7.31378 4.70137 7.13393 4.78462C6.37197 5.13731 7.61246 6.89385 8.39516 6.24415C8.66465 6.02045 8.97503 5.51218 8.98073 5.14149C8.98696 4.7363 8.51537 4.40011 8.16994 4.32937C7.85885 4.26566 7.22554 4.30288 6.99879 4.57873C6.77635 4.84934 6.71035 5.55503 6.91096 5.83924C7.07369 6.06978 7.32076 6.11326 7.57986 6.15494C7.9433 6.2134 8.86094 6.32846 9.07983 5.8644C9.24391 5.51652 8.82312 5.04291 8.63839 4.8807C8.10553 4.41279 7.26592 4.05534 6.55061 4.19897C6.12025 4.28538 5.9289 4.48982 5.70829 4.85096C5.34625 5.44359 5.50124 5.83822 6.14746 6.12062C6.66293 6.34588 7.7807 6.58222 8.31408 6.65594C8.60502 6.69615 9.6831 6.90999 9.88611 6.42259C9.96636 6.22993 9.87656 5.99858 9.80053 5.83009C9.62171 5.4338 9.32462 5.13087 8.86361 5.12319C8.24144 5.11283 7.07281 5.57302 6.85916 6.23958C6.67433 6.8162 7.11697 7.38076 7.57986 7.64421C8.86176 8.3738 10.5183 8.23274 11.9244 8.18411C11.9863 8.18196 15.1674 8.17817 14.6247 7.48408C14.1586 6.8879 13.1962 6.54921 12.4964 6.37913C11.79 6.20745 10.9909 6.296 10.287 6.42259C9.78404 6.51305 8.41248 6.67492 8.29606 7.36969C8.17649 8.08326 9.0295 8.68531 9.54378 8.93904C10.101 9.21396 10.8206 9.42318 11.4266 9.52468C11.8211 9.59075 12.9021 9.79329 13.2554 9.38056C13.395 9.21745 13.288 8.95494 13.2396 8.79949C13.1227 8.42392 12.9509 8.06178 12.7329 7.73572C12.3422 7.15127 11.7407 6.73295 11.1248 6.42717C10.8507 6.29109 10.5345 6.14319 10.2194 6.12977C9.6535 6.10568 9.34974 6.75048 9.21045 7.21413C9.03594 7.79502 8.91693 8.68856 9.17442 9.27761C9.60295 10.258 10.753 10.3422 11.6361 10.1835C12.8204 9.97072 13.9991 9.05766 13.9761 7.73114C13.9598 6.78909 12.9684 7.00598 12.3545 7.16609C11.1165 7.48897 9.96233 8.34298 10.3501 9.80836C10.4539 10.2008 10.8235 10.8552 11.1383 11.1306C11.6677 11.5937 12.1913 11.327 12.6225 10.9019C12.8858 10.6423 13.8279 9.44094 13.0482 9.17696C12.5248 8.99975 11.7429 9.16469 11.2915 9.44461C10.6565 9.83834 10.3263 10.8148 10.8951 11.4372C11.2086 11.7802 11.7582 11.9576 12.1834 12.032C13.0351 12.1809 14.1158 12.1866 14.904 11.7666C15.6147 11.388 15.7474 10.3916 15.1968 9.80836C14.744 9.3288 14.0712 9.59132 13.6856 10.0188C12.8966 10.8935 13.3245 12.1829 14.0662 12.947C14.6802 13.5796 15.16 12.3393 15.3229 11.9062C15.5277 11.3617 15.8335 10.2796 15.3184 9.79005C14.9936 9.48133 14.4762 9.68725 14.2374 9.98679C13.7089 10.6496 13.9142 11.6354 14.431 12.2424C14.5538 12.3866 14.8664 12.647 15.0932 12.6542C15.4158 12.6646 15.3963 12.1263 15.4108 11.9473C15.4488 11.4744 15.4219 11.705 15.4558 11.277C15.467 11.1354 15.5136 10.9477 15.4626 10.8058C15.2609 10.2452 14.8716 11.0851 14.7982 11.2496C14.6641 11.5498 14.2487 12.3844 14.7914 12.5627C15.0555 12.6495 15.46 12.5867 15.6968 12.5078C16.5411 12.2265 17.2835 11.6674 17.8071 10.9408C18.1476 10.4682 18.304 10.0812 18.4264 9.52468C18.4579 9.38186 18.5929 8.76036 18.3364 8.63249C17.859 8.39452 17.4259 9.47165 17.3476 9.72371C17.1668 10.3059 16.8025 11.7783 17.5796 12.1281C17.9808 12.3086 18.5916 12.1706 18.9535 12.0274C19.6808 11.7395 20.5525 11.1708 20.834 10.3826C21.1604 9.46879 19.9604 9.69465 19.5525 9.90444C19.2394 10.0655 18.0774 10.8549 18.5548 11.3571C18.681 11.4898 18.8488 11.4705 19.012 11.4303C19.6122 11.2826 20.1509 10.8377 20.539 10.3665C20.71 10.159 21.745 8.52233 20.9016 8.44719C20.3107 8.39454 19.5947 8.95478 19.2035 9.33252C18.91 9.61588 18.6533 9.90474 18.5706 10.3231C18.4702 10.8308 18.7691 11.3818 19.2823 11.515C20.4994 11.8309 20.8418 9.96387 20.9016 9.16094C20.934 8.72636 20.9808 7.52862 20.2327 7.57558C19.7613 7.60517 19.4596 8.58739 19.3634 8.9459C19.0778 10.0094 20.7143 9.89294 21.3228 9.75803C21.7501 9.66329 22.1723 9.47269 22.4173 9.08087C22.6883 8.64764 22.6809 7.986 22.5209 7.51839C22.3353 6.97575 21.5327 6.81953 21.0885 7.1638C20.85 7.34871 20.7937 7.68976 20.7777 7.96449C20.755 8.35657 20.7254 9.2119 21.2484 9.34167C21.7136 9.45706 22.5016 9.1632 22.8633 9.02139C23.7442 8.676 24.6362 8.20702 25.1245 7.34224C25.2086 7.19319 25.3334 6.76855 25.3002 6.55528C25.2634 6.3193 24.9347 6.37226 24.7889 6.37226C24.5614 6.37226 24.3397 6.34927 24.1223 6.44776C23.7005 6.63878 23.4777 7.11985 23.3678 7.54813C23.3338 7.68047 23.2697 8.04594 23.4128 8.18411C23.7268 8.48718 24.4336 8.16235 24.6921 7.99652C25.1515 7.70179 25.3965 7.40371 25.6402 6.91216C25.7964 6.59732 26.0707 5.87309 25.7191 5.5487C25.564 5.40567 25.192 5.39911 25.0209 5.45262C24.4575 5.62883 24.167 6.15408 24.0389 6.6994C23.9818 6.94277 23.9321 7.31053 24.0569 7.55957C24.2056 7.85615 24.5821 7.70436 24.7416 7.5161C25.1123 7.07871 25.2122 6.17915 24.9443 5.66766C24.6715 5.14675 24.0148 5.52018 23.7506 5.85525C23.2676 6.46794 23.6181 7.28271 24.4353 7.1821C25.3872 7.0649 25.5299 5.9083 25.4713 5.13234C25.4471 4.81148 25.3323 4.36249 24.9646 4.29277C24.5575 4.21559 24.149 4.39894 24.2912 4.8807C24.3467 5.06897 24.5457 5.44197 24.6785 5.58988C24.9335 5.87376 25.069 5.63161 25.174 5.38399C25.2994 5.0885 25.4209 4.7204 25.4083 4.39114C25.4016 4.21779 25.224 4.12985 25.0704 4.12348C24.7302 4.10937 24.8435 4.86056 24.8857 5.04541C25.0428 5.73255 25.5778 4.73773 25.6312 4.51925C25.7823 3.90088 25.2267 3.76754 24.7371 3.6545C24.1867 3.52745 23.4266 3.60149 22.9624 3.95419C22.7744 4.09699 22.6847 4.2425 22.6381 4.47349C22.5984 4.67001 22.6354 5.03141 22.9353 4.98136C23.5682 4.87577 23.9195 3.83254 23.8137 3.2839C23.678 2.57984 22.752 3.07336 22.3858 3.25645C21.9529 3.47286 21.8548 3.92623 22.2282 4.30192C22.7814 4.85871 23.7188 4.51901 24.0659 3.89242C24.3484 3.3825 23.9682 2.97319 23.4984 2.84009C22.8447 2.65489 22.1196 2.99815 21.7056 3.52639C21.2907 4.05587 21.8509 4.77439 22.4691 4.60389C23.2744 4.38179 22.7195 3.37499 22.3723 3.02768C22.2548 2.91017 21.8809 2.59596 21.7056 2.54269C21.2686 2.40984 20.9866 2.9432 20.7935 3.22213C20.5049 3.63892 19.4779 4.89633 20.1471 5.40229C20.7638 5.86854 21.1156 4.93999 20.9872 4.46892C20.7867 3.73336 20.0152 4.02653 19.6066 4.37284C19.3789 4.5658 19.0759 4.90996 18.9219 5.16895C18.7906 5.38991 18.5175 5.94016 18.7553 6.1984C18.9214 6.37886 19.1896 6.29222 19.3634 6.20069C19.783 5.97967 20.0243 5.53215 19.9489 5.04999C19.8055 4.13247 18.8288 4.20545 18.217 4.54441C18.0248 4.6509 17.7604 4.82796 17.6404 5.03626C17.5045 5.27218 17.7352 5.49748 17.976 5.48922C18.954 5.45566 19.4587 4.02729 19.6494 3.2473C19.807 2.60287 19.2038 3.12096 19.003 3.31593C18.7411 3.57029 18.4584 3.92648 18.2643 4.23557C18.1868 4.35893 18.1142 4.48738 18.0638 4.62448C17.9982 4.8032 18.0361 4.88068 18.199 4.76632C18.2885 4.70348 18.4764 4.49016 18.3679 4.48264C18.022 4.45869 17.5388 5.28966 17.422 5.49837C17.2654 5.77819 17.1247 6.14755 17.1022 6.4775C17.0739 6.89037 17.3145 6.75145 17.4445 6.51868C17.4986 6.42176 17.5633 6.15341 17.458 6.18468C17.1293 6.28228 16.8812 6.8912 16.7598 7.15923C16.6681 7.36181 16.5171 7.7605 16.4941 7.99652C16.4748 8.19401 16.6344 8.651 16.8522 8.23215C17.2584 7.4509 16.9235 5.63424 15.8364 5.5853C15.285 5.56048 15.0026 6.38946 15.0842 6.8298C15.1768 7.32987 15.7932 7.20248 15.6652 6.73829C15.6178 6.56616 15.4471 6.52469 15.3004 6.58273C15.0358 6.68739 14.8431 7.01458 14.8139 7.28962C14.7692 7.71125 15.2906 7.63931 14.859 7.24158C14.4595 6.87355 13.7731 6.45228 13.35 6.98079C13.2506 7.10492 13.1929 7.21768 13.1293 7.35825C13.0529 7.52698 13.1168 7.23501 13.1158 7.1821C13.1055 6.67566 13.0182 5.6788 12.4514 5.45948C11.8959 5.24454 12.2257 6.40238 12.3005 6.54613C12.3589 6.65846 12.5689 6.98384 12.7149 7.05399C12.9355 7.16004 12.6693 6.54656 12.5527 6.3288C12.4156 6.07285 11.8957 5.02418 11.4581 5.48922C11.254 5.70618 11.0158 6.54885 11.3636 6.75202C11.6001 6.89022 11.7847 6.31189 11.787 6.30363C11.9748 5.63358 11.9097 4.85268 11.7036 4.19668C11.5461 3.69533 11.176 3.33805 10.6383 3.5447C10.1635 3.72719 9.98091 4.4755 10.2938 4.87384C10.7492 5.4537 10.7735 3.9763 10.7329 3.80092C10.596 3.20865 10.0031 3.19311 9.51225 3.20383C9.17481 3.2112 8.69865 3.20169 8.45822 3.48979C8.27062 3.71458 8.13285 4.26533 8.233 4.55356C8.24784 4.59628 8.32491 4.5157 8.3411 4.47349C8.45599 4.17396 8.46487 3.8201 8.46272 3.50352C8.45895 2.94812 8.24548 2.85242 7.72625 2.79891C7.40634 2.76595 6.9392 2.68057 6.70601 2.97278C6.45312 3.28966 6.30611 3.76452 6.55962 4.12805C6.90195 4.61897 7.58632 4.45957 7.83661 3.96563C8.11814 3.41004 8.0882 2.8383 7.48302 2.58845C6.91118 2.35236 6.3768 2.43193 5.83666 2.70741C5.52075 2.86852 5.3638 3.14506 5.08668 3.34109C4.84287 3.51357 4.55319 3.56838 4.29616 3.70941C4.03883 3.85059 3.75457 4.07324 3.54618 4.28133C3.09069 4.73615 3.20651 5.64532 3.19483 6.24415C3.18637 6.67819 3.16566 7.13557 3.26015 7.56186C3.31642 7.81575 3.54493 8.5613 3.48762 8.30764C3.33403 7.62787 3.16038 6.82406 3.58446 6.19383C3.76935 5.91907 4.00673 5.81434 4.3367 5.8095C5.26929 5.79579 6.24675 6.11781 7.16996 6.23043C7.43639 6.26293 7.70448 6.27926 7.97174 6.30363C8.06408 6.31205 8.23954 6.2351 8.24876 6.3288C8.25783 6.42086 8.06723 6.34479 7.97625 6.34939C6.45008 6.42644 7.77281 6.33802 5.91324 6.45005C5.39093 6.48151 4.22725 6.55964 3.65653 6.61476C3.52832 6.62714 3.38951 6.61022 3.27366 6.66738C3.20572 6.70089 3.42337 6.69097 3.49888 6.69254C3.75408 6.69784 4.00943 6.69336 4.26463 6.68796C4.74423 6.67782 5.49974 6.65648 5.99657 6.59646C6.08335 6.58597 6.33024 6.57 6.25107 6.5324C6.12174 6.47098 5.96584 6.50947 5.82315 6.5141C5.54184 6.52322 5.26013 6.53832 4.98083 6.57358C4.72175 6.60629 4.45966 6.63828 4.21057 6.7177C4.11789 6.74726 3.91142 6.82046 3.97635 6.89386C4.09477 7.02773 4.31424 7.0094 4.48985 7.0334C5.08245 7.1144 5.82314 7.10275 6.41773 7.07687C6.62573 7.06781 7.24572 6.98727 7.03933 7.0151C6.30627 7.11394 5.51659 7.23887 4.82768 7.52068C4.58276 7.62086 4.25834 7.78616 4.68354 7.95991C4.86671 8.03476 5.06792 8.05907 5.2646 8.07658C5.50004 8.09755 6.08656 8.09517 5.95152 7.89815C5.77364 7.63862 4.98241 7.62259 4.83218 7.63049C4.58842 7.64331 3.44719 7.91091 4.15652 8.39915C4.37462 8.54926 4.79493 8.61701 5.04839 8.50438C5.55046 8.28127 4.83362 7.97595 4.66552 7.98965C4.39171 8.01197 4.1589 8.17058 4.2331 8.49523C4.33612 8.94603 4.97669 9.31685 5.41325 9.19068C5.47981 9.17145 5.54378 9.068 5.51234 9.00538C5.4481 8.87743 5.31041 8.79653 5.18352 8.73315C4.9726 8.62779 3.85629 8.19076 3.73761 8.72857C3.6835 8.97379 4.02982 9.21026 4.1858 9.26618C4.75643 9.47075 4.46214 8.77603 4.31418 8.60961C4.13172 8.4044 3.75372 8.13497 3.44933 8.1475C3.01223 8.1655 3.235 8.6924 3.40204 8.84296C3.58346 9.00647 3.58124 8.80682 3.53717 8.69654C3.49691 8.5958 3.43588 8.50235 3.36375 8.42202C3.30887 8.36091 3.24468 8.28309 3.1633 8.28019C3.11592 8.2785 3.09432 8.36646 3.107 8.41287C3.19235 8.72524 3.54629 9.18041 3.73311 9.38742C3.98379 9.6652 4.58639 10.3122 4.69705 9.95248C4.74048 9.81132 4.52861 9.7258 4.4448 9.74659C4.05107 9.84425 4.15833 10.4212 4.30517 10.6548C4.45138 10.8874 4.74851 11.1089 5.02137 11.1627C5.36575 11.2305 5.25097 10.8446 4.99434 10.8401C4.1932 10.8259 4.34826 12.215 5.18352 11.8078C5.43298 11.6862 5.48122 11.4166 5.29613 11.2084C4.91764 10.7827 4.42981 11.1445 4.51237 11.6545C4.63708 12.4248 5.77407 12.9855 6.11593 12.0777C6.12996 12.0405 6.15508 11.8092 6.16098 11.7529C6.21028 11.2827 6.25814 10.8126 6.31863 10.3437C6.35308 10.0766 6.40897 9.60745 6.48755 9.31651C6.57607 8.98872 6.75049 9.4636 6.79159 9.55671C7.06213 10.1696 7.21456 10.6911 7.4177 11.3503C7.54705 11.7699 7.65871 12.1952 7.79382 12.613C7.89602 12.9291 7.98577 13.252 8.1294 13.551C8.17248 13.6407 8.26099 13.8113 8.34336 13.7569C8.45027 13.6863 8.41583 13.501 8.39966 13.3726C8.37208 13.1533 8.31476 12.933 8.21498 12.7366C7.99755 12.3086 7.29832 11.693 6.91321 12.3889C6.74064 12.7007 6.77021 13.2757 6.99879 13.5601C7.42425 14.0895 7.79924 13.2872 7.86139 12.9905C7.88416 12.8818 7.93989 12.1372 7.6159 12.1875C7.5078 12.2043 7.36141 12.326 7.3096 12.398C7.00913 12.8157 7.02171 13.309 7.38617 13.6951C8.49811 14.8732 10.0735 13.8369 10.8275 12.8098C10.8992 12.7122 10.9553 12.6009 10.9919 12.4849C11.0041 12.4464 10.9248 12.5327 10.9041 12.5673C10.8374 12.6786 10.777 12.795 10.7329 12.9173C10.5606 13.3961 10.7259 13.1748 10.7172 13.0363C10.6827 12.4894 10.5999 12.172 10.242 11.7003C9.91315 11.2669 9.01493 10.5012 8.42218 11.0437C8.139 11.3029 8.31855 11.7191 8.50326 11.9405C8.88975 12.4036 9.52204 12.643 10.0618 12.851C11.1588 13.2736 11.9701 14.1473 12.9198 14.8275C13.5452 15.2754 14.2387 15.5682 14.9265 15.8982C15.0894 15.9763 15.5943 16.1741 15.0459 16.104C13.7767 15.9419 12.4837 15.7395 11.2284 15.4909C10.436 15.334 9.5238 15.0909 8.84334 14.6239C8.70548 14.5293 8.14658 13.7374 8.5393 14.3563C9.39828 15.7098 10.6616 16.5405 12.1428 17.058C13.1142 17.3974 14.0491 17.8638 14.9716 18.3322C14.9861 18.3396 15.5729 18.6345 15.3409 18.6182C14.3118 18.5461 13.2732 18.2107 12.3005 17.8839C11.2318 17.5248 10.2272 17.0403 9.24649 16.4838C9.23565 16.4776 9.00856 16.3451 8.96721 16.3465C8.94882 16.3472 8.94798 16.3846 8.95595 16.4014C9.02767 16.553 9.29824 16.8341 9.37261 16.9116C10.0051 17.5706 10.7263 18.1516 11.4672 18.68C11.8642 18.9631 12.3042 19.1875 12.6811 19.499C12.8817 19.6647 13.069 19.8167 13.3004 19.9382C13.8397 20.2212 14.3845 20.4043 14.7328 20.9173C14.9896 21.2954 15.6257 22.5147 15.4175 22.1069C15.2463 21.7716 15.2859 21.2665 15.2779 20.9059C15.261 20.1528 15.3578 19.4306 15.44 18.6845C15.6489 16.7884 15.3361 14.9055 15.1292 13.0248C15.122 12.9596 15.0617 12.8001 15.1202 12.8281C15.147 12.8409 15.1465 12.8821 15.1563 12.9104C15.2109 13.0687 15.3624 13.5811 15.3882 13.6677C15.6547 14.5598 15.9269 15.4359 16.2824 16.2962C16.5751 17.0048 16.9876 17.7752 17.0008 18.5633C17.0118 19.2216 16.648 19.7417 16.3274 20.2813C16.1927 20.5081 15.6945 21.107 15.904 20.9493C16.6559 20.3836 17.3495 19.6719 18.0301 19.0231C18.6913 18.3927 19.3984 17.7112 19.9129 16.9459C20.1259 16.6291 20.1843 16.4741 20.3543 16.1269C20.6278 15.5686 20.9232 15.0584 21.3048 14.5667C22.3964 13.16 23.6111 11.9044 24.4849 10.3345C24.8729 9.63729 25.2963 8.94182 25.6515 8.22757C25.9817 7.56345 26.1006 6.917 26.129 6.1801C26.1548 5.50965 26.2448 3.52893 25.0569 4.34081C24.1142 4.98512 23.3713 5.8493 22.9421 6.91902C22.6766 7.58087 22.5739 8.01334 22.3565 8.71027C22.0003 9.85228 21.5961 10.9638 21.1291 12.064C20.8048 12.8279 20.5491 13.4276 19.9669 14.0017C19.4511 14.5103 18.9503 15.0366 18.6111 15.6877C18.4904 15.9194 18.4081 16.4348 18.1945 16.5936C18.084 16.6757 17.9742 16.6044 17.8747 16.5318C17.4216 16.2015 17.0628 15.6052 16.985 15.0426C16.9266 14.6194 17.0267 14.1823 17.3544 13.8896C17.7267 13.5571 18.4028 13.4848 18.7598 13.8781C18.946 14.0834 18.893 14.2477 18.7463 14.4386C18.6021 14.6261 18.1237 14.8568 18.6787 14.9648C19.031 15.0333 19.8904 15.0224 20.2102 15.0243C20.6854 15.0271 21.1568 15.0445 21.6313 15.054C22.1072 15.0636 22.5797 14.9188 22.9624 14.6262C24.2789 13.6196 24.9293 12.0345 25.6335 10.5907C26.2536 9.31928 27.1524 8.18514 27.2325 6.71084C27.2453 6.47618 27.2525 6.03674 27.246 5.8095C27.2359 5.45437 27.2611 4.94571 27.0343 4.64049C26.6779 4.16069 25.7654 4.0197 25.2236 3.9519C25.0414 3.92911 24.3974 3.87715 24.2146 3.8604C24.1256 3.85224 23.6844 3.75318 23.5569 3.79405C23.4926 3.81468 23.6408 3.90419 23.6966 3.94275C24.2226 4.30661 24.8126 4.60027 25.2911 5.03169C25.6498 5.35498 25.8872 5.68588 26.0434 6.14807C26.3402 7.0266 26.4366 8.11453 26.1154 8.99852C25.7499 10.0046 25.223 10.5109 24.4015 11.1832C23.1627 12.1972 21.6996 12.9477 20.3273 13.7523C19.585 14.1876 19.0158 14.5239 18.2643 14.9236C17.5159 15.3217 16.74 15.6601 16.0324 16.1338C15.7556 16.3191 15.3919 16.5925 15.145 16.8384C15.0984 16.8848 14.9677 17.0269 15.0256 16.9962C15.7107 16.6337 16.2649 16.0554 16.8364 15.5275C18.3796 14.1023 19.8822 12.5855 21.1876 10.9293C21.7919 10.1627 22.3445 9.35256 22.8543 8.51811C23.2009 7.95071 23.5489 7.36926 23.7506 6.73372C23.8173 6.52377 23.8425 6.10915 23.6268 6.08402C23.2173 6.03631 22.8414 6.36222 22.4939 6.58731C21.7228 7.08676 21.0094 7.67355 20.289 8.24587C18.0111 10.0557 15.8648 12.0045 13.7914 14.0497C13.2933 14.5411 12.8544 15.1009 12.305 15.5321C12.28 15.5518 12.2819 15.4636 12.2982 15.436C12.5918 14.9399 14.0477 12.9503 14.0617 12.931C15.8625 10.4479 15.6963 10.7062 17.5436 8.17953C18.0487 7.4887 18.5575 6.80056 19.0526 6.10232C19.1315 5.99097 20.404 4.18852 20.575 3.75974C20.8163 3.15491 19.9842 3.5252 19.8814 3.56757C18.2917 4.22232 16.7465 5.27478 15.458 6.41116C13.3837 8.24063 12.1546 10.7395 10.3095 12.764C9.98846 13.1163 9.34999 13.7343 8.85911 13.9262C8.25053 14.164 7.71873 13.7802 7.53031 13.1964C7.30675 12.5037 7.41133 11.9589 7.65644 11.2702C8.15134 9.87957 9.12197 8.72716 10.0257 7.59846C10.0392 7.5816 11.4325 5.8958 11.5302 5.73172C11.5927 5.62668 11.7039 5.39723 11.5865 5.36797C11.3242 5.30259 11.0486 5.45159 10.796 5.5487C10.2357 5.7641 9.69476 6.02979 9.15865 6.30135C7.84383 6.96736 7.2057 7.34888 6.05062 8.17267C5.66321 8.44896 4.87856 9.33272 4.25111 9.0763C3.15387 8.62789 4.91346 6.48417 5.20605 6.0497C5.604 5.45878 5.78915 5.16522 6.27359 4.64736C6.4492 4.45962 6.63571 4.28171 6.83213 4.11662C7.81658 3.28914 6.83756 4.18001 7.69247 3.57215" stroke="white" stroke-width="3" stroke-linecap="round"/>
<path d="M11.3817 17.4904C11.515 16.3397 9.2226 16.6853 8.70613 16.2597C8.35421 15.9696 7.93264 15.84 7.61382 15.5162C7.34923 15.2474 7.11437 14.9649 6.85933 14.6903C6.72686 14.5477 6.54806 14.4625 6.40439 14.3312C6.05559 14.0123 5.69996 13.7131 5.31432 13.4412C4.99286 13.2146 4.74481 12.8926 4.4675 12.6154C4.26552 12.4135 4.02093 12.2251 3.83688 12.0046C3.72844 11.8746 3.68722 11.6926 3.62292 11.5402C3.36356 10.9255 2.90688 10.4879 2.56664 9.93195C2.28468 9.47121 2.43241 8.97846 2.50358 8.47241" stroke="white" stroke-width="3" stroke-linecap="round"/>
<path d="M27.8739 2.0183C26.4563 0.672577 24.4979 0 21.9976 0C21.3057 0 20.5995 0.116638 19.8798 0.3498C19.1598 0.583132 18.49 0.897929 17.8712 1.29396C17.2515 1.68988 16.719 2.06169 16.2722 2.40881C15.826 2.75604 15.4017 3.12505 15 3.51555C14.5981 3.12505 14.174 2.75604 13.7277 2.40881C13.2812 2.06169 12.7484 1.69011 12.1288 1.29396C11.5094 0.897758 10.8397 0.583189 10.1199 0.3498C9.40011 0.116695 8.69406 0 8.00215 0C5.50206 0 3.54347 0.672748 2.12611 2.0183C0.708742 3.36374 0 5.22995 0 7.61709C0 8.34411 0.131346 9.09308 0.393511 9.86308C0.655676 10.6335 0.95443 11.29 1.28919 11.8325C1.62388 12.3748 2.00344 12.9038 2.42756 13.4192C2.85168 13.9346 3.16163 14.2898 3.35672 14.4852C3.55198 14.6805 3.70549 14.8217 3.81707 14.9085L14.2634 24.7068C14.4643 24.9021 14.7098 25 15 25C15.2901 25 15.5358 24.9021 15.7366 24.7068L26.1663 14.9408C28.7222 12.4564 30 10.0149 30 7.61686C30.0001 5.22955 29.2914 3.36351 27.8739 2.0183ZM24.7098 13.4111L15 22.5093L5.27367 13.3947C3.18655 11.366 2.14317 9.4398 2.14317 7.61686C2.14317 6.73809 2.26314 5.96215 2.50297 5.28958C2.74297 4.61689 3.04987 4.08232 3.42374 3.68629C3.79766 3.29014 4.25239 2.96759 4.7881 2.71784C5.32409 2.46832 5.8486 2.30009 6.36191 2.21333C6.87521 2.12667 7.422 2.08329 8.00244 2.08329C8.58271 2.08329 9.20784 2.22148 9.87747 2.49825C10.547 2.77491 11.1636 3.12214 11.7272 3.53984C12.2908 3.95782 12.7735 4.34838 13.1755 4.71175C13.5772 5.07546 13.9119 5.40889 14.1798 5.71275C14.3806 5.95155 14.6542 6.07092 15.0001 6.07092C15.346 6.07092 15.6194 5.95155 15.8204 5.71275C16.0883 5.40889 16.4232 5.07528 16.8249 4.71175C17.2267 4.34838 17.7095 3.95799 18.2729 3.53984C18.8366 3.12214 19.4532 2.77491 20.1231 2.49825C20.7925 2.22153 21.4178 2.08329 21.9981 2.08329C22.5784 2.08329 23.125 2.12667 23.6386 2.21333C24.152 2.30003 24.6765 2.46832 25.2124 2.71784C25.7481 2.96754 26.2029 3.29032 26.5767 3.68629C26.9505 4.08232 27.2576 4.61689 27.4976 5.28958C27.7372 5.96215 27.8571 6.73809 27.8571 7.61686C27.857 9.4398 26.8081 11.3714 24.7098 13.4111Z" fill="black"/>
</svg>
